<svg xmlns="http://www.w3.org/2000/svg" version="1.1" xmlns:xlink="http://www.w3.org/1999/xlink" xmlns:svgjs="http://svgjs.dev/svgjs" width="1920" height="1024" preserveAspectRatio="none" viewBox="0 0 1920 1024">
    <g mask="url(&quot;#SvgjsMask1009&quot;)" fill="none">
        <path d="M149.33 0C211.38 22.16 192.65 84.91 256 91.43C373.98 103.57 384.94 33.27 512 37.33C640.94 41.45 655.9 46.02 768 107.79C854.3 155.35 866.5 167.27 908.8 256C962.85 369.37 921.34 389.27 960.69 512C978.94 568.92 985.44 569.04 1024 615.3C1092.13 697.04 1113.3 681.46 1174.07 768C1241.3 863.74 1220.72 979.86 1280 979.86C1343.5 979.86 1410.69 880.12 1419.64 768C1429.36 646.19 1372.66 637.92 1317.33 512C1302.84 479.03 1300.6 479.82 1280 450.21C1211.54 351.82 1199.6 359.04 1139.2 256C1071.6 140.67 1084.57 132.51 1024 13.47C1019.44 4.51 1008.94 3.86 1008.94 0C1008.94 -2.88 1016.47 0 1024 0C1066.66 0 1066.89 -3.54 1109.33 0C1194.89 7.13 1197.5 21.33 1280 21.33C1297.05 21.33 1291.15 1.44 1308.44 0C1419.15 -9.22 1422.22 0 1536 0C1588.51 0 1641.03 -25.86 1641.03 0C1641.03 42.41 1589.76 69.26 1536 136.53C1487.46 197.26 1436.44 203.7 1436.44 256C1436.44 296.02 1481.91 321.16 1536 321.16C1631.24 321.16 1638.61 294.86 1735.11 256C1766.61 243.32 1759.86 228.78 1792 218.07C1916.31 176.63 1956.2 138.1 2048 151.7C2084.2 157.06 2048 203.85 2048 256C2048 323.05 2066.2 328.22 2048 390.1C2028.55 456.22 1972.71 453.27 1972.71 512C1972.71 561.63 2031.85 551.91 2048 606.81C2069.5 679.91 2048 687.4 2048 768C2048 896 2107.54 955.54 2048 1024C1996.23 1083.54 1934.3 1032.6 1825.39 1024C1806.3 1022.49 1806.02 1003.79 1792 1003.79C1783.68 1003.79 1791.77 1023.13 1780.71 1024C1663.77 1033.23 1658.36 1024 1536 1024C1408 1024 1408 1024 1280 1024C1152 1024 1152 1024 1024 1024C916.21 1024 909.31 1040.36 808.42 1024C781.31 1019.6 788.42 982.49 768 982.49C747.17 982.49 753.63 1019.51 725.92 1024C625.63 1040.26 618.96 1024 512 1024C384 1024 384 1024 256 1024C181.34 1024 176.9 1040.72 106.67 1024C48.9 1010.24 20.61 1012.52 0 963.05C-32.72 884.52 0 865.53 0 768C0 647.53 -5.39 645.69 0 527.06C0.43 517.69 11.64 518.95 11.64 512C11.64 506.37 0.34 509.44 0 501.89C-5.48 381.44 0 378.94 0 256C0 128 -47.16 80.84 0 0C27.51 -47.16 83.38 -23.55 149.33 0" stroke="rgba(76, 175, 80, 0.2)" stroke-width="2"></path>
        <path d="M256 756.36C247.38 760.35 240.94 760.37 240.94 768C240.94 782.19 239.76 795.42 256 800C375.29 833.67 394.73 855.82 512 844.51C560.55 839.82 587.64 810.77 587.64 768C587.64 709.72 568.96 644.42 512 642.42C403.14 638.6 382.91 697.56 256 756.36" stroke="rgba(76, 175, 80, 0.2)" stroke-width="2"></path>
        <path d="M0 19.69C75.54 16.09 112.38 201.46 256 243.81C368.38 276.95 385.97 167.41 512 170.67C621.76 173.51 619.79 213.33 727.58 256C747.79 264 756.61 254.25 768 272C838.76 382.25 825.76 394.35 891.87 512C953.76 622.14 953.81 623.02 1024 727.58C1039.73 751.02 1049.76 743.55 1063.72 768C1134.37 891.76 1205.71 943.49 1193.22 1024C1185.85 1071.49 1108.61 1024 1024 1024C958.32 1024 946.87 1051.12 892.63 1024C818.87 987.12 827.98 962.11 768 896C711.85 834.11 707.43 836.83 660.36 768C579.43 649.66 612.54 548.67 512 521.66C410.36 494.36 379.07 582.94 256 659.39C180.8 706.11 185.16 712.98 115.45 768C57.16 814.01 35.43 861.46 0 861.46C-22.29 861.46 0 814.73 0 768C0 710.28 -21.39 702.97 0 652.55C32.91 574.97 108.61 576.89 108.61 512C108.61 459.45 25.57 477.94 0 417.68C-28.74 349.94 0 336.84 0 256C0 137.85 -52.46 22.19 0 19.69" stroke="rgba(76, 175, 80, 0.2)" stroke-width="2"></path>
        <path d="M1450.67 512C1450.67 465.2 1485.44 437.53 1536 437.53C1648.58 437.53 1661.62 467.97 1776.94 512C1789.62 516.84 1784.75 523.46 1792 535.27C1863.39 651.46 1934.22 672.85 1934.22 768C1934.22 822.9 1844.17 781.43 1792 835.37C1720.36 909.43 1762.02 968.42 1686.59 1024C1634.02 1062.73 1611.3 1024 1536 1024C1450.66 1024 1365.33 1066.67 1365.33 1024C1365.33 952.89 1438.75 893.69 1536 796.44C1566.75 765.69 1621.33 788.64 1621.33 768C1621.33 743.94 1564.16 749.29 1536 707.05C1478.83 621.29 1450.67 599.96 1450.67 512" stroke="rgba(76, 175, 80, 0.2)" stroke-width="2"></path>
        <path d="M281.6 1024C281.6 996.25 403.92 918.07 512 918.07C582.24 918.07 638.25 994.01 638.25 1024C638.25 1046.97 575.13 1024 512 1024C396.8 1024 281.6 1049.21 281.6 1024" stroke="rgba(76, 175, 80, 0.2)" stroke-width="2"></path>
        <path d="M0 142.77C38.49 142.77 128 205.16 128 256C128 300.51 42.17 333.47 0 333.47C-21.83 333.47 0 294.74 0 256C0 199.38 -25.51 142.77 0 142.77" stroke="rgba(76, 175, 80, 0.2)" stroke-width="2"></path>
        <path d="M205.58 512C205.58 469.41 224.13 419.56 256 419.56C295.56 419.56 348.44 472.44 348.44 512C348.44 543.87 298.59 562.42 256 562.42C227.16 562.42 205.58 540.84 205.58 512" stroke="rgba(76, 175, 80, 0.2)" stroke-width="2"></path>
        <path d="M648.93 512C655.43 444.48 718.28 405.33 768 405.33C805.34 405.33 805.8 454.99 823.05 512C860.66 636.32 896.72 665.28 877.71 768C869.19 814.03 817.45 809.51 768 809.51C745.14 809.51 743.06 792.92 733.09 768C683.53 644.17 637.97 625.82 648.93 512" stroke="rgba(76, 175, 80, 0.2)" stroke-width="2"></path>
        <path d="M441.6 1024C441.6 1015.52 478.97 991.63 512 991.63C533.46 991.63 550.58 1014.84 550.58 1024C550.58 1031.02 531.29 1024 512 1024C476.8 1024 441.6 1031.7 441.6 1024" stroke="rgba(76, 175, 80, 0.2)" stroke-width="2"></path>
        <path d="M976.84 1024C976.84 980.31 997.6 904.53 1024 904.53C1051.55 904.53 1084.75 982.9 1084.75 1024C1084.75 1042.63 1054.38 1024 1024 1024C1000.42 1024 976.84 1040.04 976.84 1024" stroke="rgba(76, 175, 80, 0.2)" stroke-width="2"></path>
        <path d="M1472 1024C1472 997.33 1505.26 938.67 1536 938.67C1565.49 938.67 1592.47 996.51 1592.47 1024C1592.47 1039.17 1564.24 1024 1536 1024C1504 1024 1472 1040 1472 1024" stroke="rgba(76, 175, 80, 0.2)" stroke-width="2"></path>
    </g>
    <defs>
        <mask id="SvgjsMask1009">
            <rect width="1920" height="1024" fill="#ffffff"></rect>
        </mask>
    </defs>
</svg>